HIERARCHY
ROOT Hips
{
	OFFSET	0	0	0
	CHANNELS 6  Xposition Yposition Zposition Xrotation Yrotation Zrotation
	JOINT Spine
	{
		OFFSET	0	7.0817	1.42564
		CHANNELS 3  Xrotation Yrotation Zrotation
		JOINT Spine1
		{
			OFFSET	0	12.1578	-2.17103
			CHANNELS 3  Xrotation Yrotation Zrotation
			JOINT Spine2
			{
				OFFSET	0	9.21601	0.987817
				CHANNELS 3  Xrotation Yrotation Zrotation
				JOINT Spine3
				{
					OFFSET	0	11.0288	3.27825
					CHANNELS 3  Xrotation Yrotation Zrotation
					JOINT Spine4
					{
						OFFSET	0	16.3261	-1.67169
						CHANNELS 3  Xrotation Yrotation Zrotation
						JOINT Neck
						{
							OFFSET	0	7.79399	-5.46013
							CHANNELS 3  Xrotation Yrotation Zrotation
							JOINT Head
							{
								OFFSET	0	9.35713	-2.80063
								CHANNELS 3  Xrotation Yrotation Zrotation
								End Site
								{
									OFFSET	0	19.5175	-0.944397
								}
							}
						}
					}
					JOINT LeftShoulder
					{
						OFFSET	-4.68942	19.8432	-9.35713
						CHANNELS 3  Xrotation Yrotation Zrotation
						JOINT LeftArm
						{
							OFFSET	-10.2519	-2.80063	3.59307
							CHANNELS 3  Xrotation Yrotation Zrotation
							JOINT LeftForeArm
							{
								OFFSET	-34.1249	-1.55752	2.4358
								CHANNELS 3  Xrotation Yrotation Zrotation
								JOINT LeftHand
								{
									OFFSET	-28.1809	-1.94746	2.01152
									CHANNELS 3  Xrotation Yrotation Zrotation
									End Site
									{
										OFFSET	-10.2846	-0.710727	0.734058
									}
								}
							}
						}
					}
					JOINT RightShoulder
					{
						OFFSET	4.68942	19.8432	-9.35713
						CHANNELS 3  Xrotation Yrotation Zrotation
						JOINT RightArm
						{
							OFFSET	10.2519	-2.80063	3.59307
							CHANNELS 3  Xrotation Yrotation Zrotation
							JOINT RightForeArm
							{
								OFFSET	34.1249	-1.55752	2.4358
								CHANNELS 3  Xrotation Yrotation Zrotation
								JOINT RightHand
								{
									OFFSET	28.1809	-1.94746	2.01152
									CHANNELS 3  Xrotation Yrotation Zrotation
									End Site
									{
										OFFSET	10.2846	-0.710727	0.734058
									}
								}
							}
						}
					}
				}
			}
		}
	}
	JOINT LeftUpLeg
	{
		OFFSET	-9.64475	-3.54085	-0.712821
		CHANNELS 3  Xrotation Yrotation Zrotation
		JOINT LeftLeg
		{
			OFFSET	-2.14734	-42.0762	-0.657743
			CHANNELS 3  Xrotation Yrotation Zrotation
			JOINT LeftFoot
			{
				OFFSET	-2.09898	-38.6909	3.32741
				CHANNELS 3  Xrotation Yrotation Zrotation
				JOINT LeftToeBase
				{
					OFFSET	0	-4.81787	-12.7963
					CHANNELS 3  Xrotation Yrotation Zrotation
					End Site
					{
						OFFSET	0	-1.92715	-7.70859
					}
				}
			}
		}
	}
	JOINT RightUpLeg
	{
		OFFSET	9.64475	-3.54085	-0.712821
		CHANNELS 3  Xrotation Yrotation Zrotation
		JOINT RightLeg
		{
			OFFSET	2.14734	-42.0762	-0.657743
			CHANNELS 3  Xrotation Yrotation Zrotation
			JOINT RightFoot
			{
				OFFSET	2.09898	-38.6909	3.32741
				CHANNELS 3  Xrotation Yrotation Zrotation
				JOINT RightToeBase
				{
					OFFSET	0	-4.81787	-12.7963
					CHANNELS 3  Xrotation Yrotation Zrotation
					End Site
					{
						OFFSET	0	-1.92715	-7.70859
					}
				}
			}
		}
	}
}
MOTION
Frames: 17
Frame Time: 0.020408
 0 -10.1657 2.85827 -0 0 -0 -0 0 -0 -0 0 -0 -0 0 -0 -0 0 -0 -0 0 -0 -0 0 -0 -0 0 -0 -0 0 -0 -0 0 -0 -0 0 -0 -0 0 -0 -0 0 -0 -0 0 -0 -0 0 -0 -0 0 -0 -0 0 -0 -0 0 -0 -0 0 -0 -0 0 -0 -0 0 -0 -0 0 -0 -0 0 -0 -0 0 -0
 -156.811 89.4506 206.065 0.474942 3.35936 -4.4857 180 179.984 -178.536 179.993 179.969 -177.56 0.157989 0.0932929 2.44043 0.4987 0.0155579 1.46426 178.825 -179.99 -179.512 176.647 -179.94 -179.816 178.994 -179.719 -179.972 1.13879 -21.5203 2.46111 112.56 -163.196 -141.922 118.889 -43.8107 126.391 -0 -5.57711 -6.30626 1.34368 8.71928 -2.76588 173.104 140.481 106.91 168.974 142.213 -171.523 -0 -9.23663 -19.13 12.2465 -12.7926 18.3469 162.641 165.592 176.518 10.1199 -2.10204 -2.49197 176.234 180 -180 24.9702 -11.5955 14.5881 156.471 -164.187 -178.873 177.668 179.948 174.387 0.0770051 0 0
 -156.876 89.4386 205.931 0.484581 3.13228 -4.66122 180 179.985 -178.505 0.00649972 0.0290322 2.49203 0.171143 0.0870966 2.49203 0.506308 0.0145249 1.49522 178.832 -179.99 -179.502 176.657 -179.45 179.848 178.997 -179.176 179.887 1.13896 -21.3215 2.46058 112.269 -163.367 -141.941 118.879 -43.8975 126.361 -0 -6.1468 -6.46898 1.37421 8.46121 -2.82445 173.259 140.031 106.81 168.997 142.531 -171.607 -0 -9.22444 -19.1818 12.2342 -12.8557 18.5843 162.681 165.195 176.52 10.1421 -2.28503 -2.88967 176.252 180 -180 24.9914 -11.1559 14.7404 156.456 -164.185 -179.005 177.613 179.944 174.583 0.0828009 0 0
 -156.911 89.4687 205.897 0.447017 3.26794 -4.73479 180 179.982 -178.515 0.0314929 0.0369036 2.4748 0.201782 0.110711 2.4748 0.542016 0.0184628 1.48488 178.797 -179.99 -179.505 176.534 -178.957 179.956 178.959 -178.201 179.835 1.27478 -21.3562 2.75437 111.76 -163.289 -142.374 118.845 -44.088 126.122 -0 -6.65085 -6.42273 1.37561 8.2142 -2.82313 173.206 139.63 106.822 169.051 142.826 -171.624 -0 -9.21903 -19.2586 12.1766 -12.9665 18.6341 162.819 164.885 176.646 10.0926 -2.44841 -3.05196 176.259 180 -180 24.8692 -11.1613 14.7824 156.856 -164.119 -178.892 177.422 179.902 174.625 0.0834047 0 0
 -156.968 89.4855 205.854 0.446072 3.30601 -4.96595 9.39063e-05 -0.00360721 1.49124 0.0557305 -0.00721007 2.4854 0.229836 -0.0216302 2.4854 0.557479 -0.00360721 1.49124 178.804 -179.99 -179.503 176.539 -178.566 -179.668 178.958 -177.156 179.852 1.32841 -21.1267 2.8691 111.325 -163.117 -142.597 118.729 -44.3566 125.763 -0 -7.07971 -6.31225 1.35207 8.25174 -2.77541 173.253 139.118 106.889 169.127 143.102 -171.752 -0 -9.20368 -19.3904 12.233 -13.1438 18.9566 163.01 164.307 176.563 10.0622 -1.91365 -1.77666 176.219 180 -180 24.8389 -11.2566 15.3497 157.09 -164.13 -179.35 177.291 179.882 174.418 0.0674831 0 0
 -156.956 89.485 205.831 0.470727 3.32129 -5.03346 180 179.999 -178.525 0.0557971 0.00230894 2.45854 0.240791 0.00692681 2.45854 0.592809 0.00115515 1.47512 178.722 -179.989 -179.508 176.311 -178.165 -179.539 178.887 -176.322 179.816 1.30184 -21.1176 2.81163 111.201 -162.638 -142.948 118.356 -44.7945 125.116 -0 -7.28135 -6.16835 1.37373 8.20049 -2.81902 173.162 138.693 106.925 169.208 143.455 -171.771 -0 -9.18116 -19.4344 12.2899 -13.6518 19.1086 163.115 163.933 176.534 10.0265 -1.7701 -1.44348 176.211 180 -180 24.8025 -11.1796 15.4142 157.116 -164.059 -179.31 177.251 179.921 174.348 0.0681496 0 0
 -156.965 89.465 205.761 0.46217 3.06315 -5.25116 180 179.995 -178.489 0.0782893 0.0104351 2.51914 0.262944 0.0313053 2.51914 0.60908 0.00522078 1.51148 178.727 -179.989 -179.496 176.31 -177.802 -179.412 178.883 -175.562 179.786 1.26858 -20.8047 2.73806 110.853 -162.472 -143.147 118.246 -45.069 124.808 -0 -7.48635 -6.07579 1.40486 8.18427 -2.88269 173.184 138.259 106.874 169.279 143.702 -171.841 -0 -9.14415 -19.4631 12.2573 -13.7778 19.2932 163.336 163.732 176.63 9.94835 -1.94229 -2.12079 176.225 180 -180 25.1409 -11.2608 15.6411 156.845 -164.116 -179.286 177.335 179.763 174.586 0.0755593 0 0
 -157.089 89.4675 205.663 0.530149 3.08853 -5.55253 4.72724e-06 -0.00017407 1.5556 0.0835262 -0.000347913 2.59267 0.272673 -0.00104374 2.59267 0.623024 -0.00017407 1.5556 178.704 -179.988 -179.482 176.246 -177.481 -179.167 178.861 -174.762 179.786 1.27742 -20.5678 2.7558 110.294 -162.057 -143.414 118.132 -45.3372 124.514 -0 -7.69853 -5.98273 1.41006 8.36403 -2.89652 173.156 137.755 106.955 169.366 144.104 -171.971 -0 -9.19074 -19.358 12.1973 -14.0745 19.743 163.594 163.527 176.591 9.79082 -2.07499 -2.60809 176.237 180 -180 24.8737 -10.8874 16.0719 156.974 -163.899 -179.51 177.345 179.764 174.648 0.0730077 0 0
 -157.039 89.4433 205.608 0.590595 3.0568 -5.61316 3.27135e-06 -0.000121211 1.54598 0.100802 -0.000242264 2.57663 0.293896 -0.000726792 2.57663 0.646415 -0.000121211 1.54598 178.682 -179.988 -179.485 176.178 -177.016 -179.114 178.835 -173.89 179.725 1.27978 -20.4294 2.76009 109.69 -161.535 -144.056 117.791 -45.7143 123.938 -0 -7.9137 -5.90007 1.40314 8.38185 -2.88261 173.192 137.287 106.825 169.417 144.347 -171.97 -0 -9.27554 -19.0691 12.1071 -14.1564 19.7878 163.645 163.579 176.575 9.81033 -2.16259 -2.96079 176.247 180 -180 24.9417 -11.0491 16.186 156.793 -163.799 -179.541 177.49 179.669 174.861 0.0772912 0 0
 -157.042 89.4275 205.588 0.622277 3.1486 -5.78817 180 179.992 -178.453 0.102381 0.0158409 2.57871 0.297716 0.0475227 2.57871 0.658802 0.00792559 1.54722 178.657 -179.988 -179.484 176.116 -176.533 -179.166 178.811 -173.081 179.639 1.27823 -20.4298 2.75675 109.433 -160.974 -144.834 117.467 -46.0608 123.452 -0 -8.23588 -5.91877 1.37477 8.29028 -2.8227 173.327 136.952 106.779 169.417 144.327 -172.014 -0 -9.32878 -18.7301 12.0704 -14.2904 19.8796 163.771 163.604 176.796 9.76516 -2.19188 -3.09519 176.242 180 -180 24.9965 -11.0775 16.4327 156.7 -163.648 -179.525 177.521 179.683 174.788 0.0788141 0 0
 -157.046 89.4191 205.429 0.727565 3.16401 -6.00404 4.63797e-05 -0.00167884 1.58245 0.105094 -0.0033554 2.63742 0.306466 -0.0100662 2.63742 0.673195 -0.00167884 1.58245 178.628 -179.987 -179.473 176.038 -176.329 -178.907 178.783 -172.475 179.657 1.24202 -19.9536 2.67579 109.219 -160.744 -145.358 117.353 -46.2644 123.349 -0 -8.66392 -6.03247 1.38225 8.3528 -2.83914 173.249 136.579 106.684 169.387 144.331 -172.026 -0 -9.45803 -18.486 11.756 -14.1844 20.0508 163.952 163.49 176.726 9.88682 -1.63084 -1.55057 176.197 180 -180 24.7043 -10.9466 16.7697 156.739 -163.568 -179.749 177.69 179.793 174.386 0.0619165 0 0
 -157.137 89.3924 205.379 0.746251 3.15894 -6.1005 0.000154853 -0.00561664 1.57926 0.107889 -0.0112257 2.63211 0.30504 -0.0336771 2.63211 0.660094 -0.00561664 1.57926 178.663 -179.988 -179.474 176.147 -175.981 -178.976 178.812 -171.925 179.592 1.2243 -19.6566 2.63576 109.451 -160.645 -146.023 117.397 -46.3219 123.562 -0 -9.22008 -6.24237 1.41502 8.25017 -2.90472 173.061 136.406 106.899 169.312 144.181 -171.94 -0 -9.53249 -18.3036 11.7059 -14.3527 20.4028 164.187 163.549 176.42 9.77463 -1.87714 -2.46379 176.217 180 -180 24.8418 -11.3279 17.0239 156.742 -163.67 -179.68 177.694 179.618 174.624 0.0657801 0 0
 -157.186 89.3718 205.324 0.82581 3.15547 -6.17031 180 179.993 -178.439 0.118346 0.014953 2.60217 0.320601 0.0448589 2.60217 0.689989 0.00748142 1.5613 178.614 -179.987 -179.48 176.007 -175.633 -179.187 178.765 -171.5 179.492 1.25885 -19.599 2.70983 109.643 -160.663 -146.672 117.481 -46.3394 123.763 -0 -9.75321 -6.43186 1.41369 7.97794 -2.89717 172.74 136.323 107.164 169.239 144.076 -171.917 -0 -9.60517 -18.1942 11.5824 -14.5246 20.5126 164.301 163.649 176.458 9.75438 -2.01401 -3.00315 176.231 180 -180 24.6026 -10.879 17.009 156.682 -163.532 -179.666 177.817 179.768 174.614 0.0682794 0 0
 -157.172 89.3707 205.341 0.818085 3.10769 -6.18748 180 179.987 -178.437 0.124303 0.0254759 2.60544 0.322923 0.0764277 2.60544 0.686111 0.0127464 1.56327 178.635 -179.988 -179.479 176.067 -175.351 -179.452 178.78 -171.25 179.397 1.28803 -19.4816 2.7719 109.86 -160.779 -147.227 117.659 -46.2997 123.954 -0 -10.2872 -6.60545 1.44716 7.72092 -2.96113 172.606 136.244 107.342 169.157 144.071 -171.868 -0 -9.72448 -18.0878 11.4955 -14.5303 20.6068 164.502 163.736 176.242 9.69452 -1.89234 -2.81117 176.223 180 -180 24.5867 -11.0667 17.0581 156.825 -163.463 -179.602 177.718 179.812 174.586 0.0678734 0 0
 -157.205 89.3524 205.291 0.859994 3.13777 -6.35783 180 179.998 -178.398 0.123138 0.00406875 2.67029 0.324726 0.0122062 2.67029 0.688063 0.00203579 1.60217 178.627 -179.987 -179.466 176.05 -175.224 -179.567 178.774 -171.131 179.353 1.27575 -19.3497 2.74457 109.804 -160.83 -147.617 117.856 -46.2227 124.159 -0 -10.7698 -6.72181 1.48504 7.52759 -3.03504 172.542 136.188 107.419 169.105 143.967 -171.887 -0 -9.76547 -18.0817 11.4766 -14.7629 20.837 164.615 163.675 176.282 9.70189 -1.66934 -2.5173 176.213 180 -180 24.6112 -11.0368 17.3023 156.714 -163.458 -179.626 177.815 179.857 174.505 0.0665666 0 0
 -157.201 89.3505 205.211 0.905515 3.3269 -6.29269 180 179.989 -178.445 0.130471 0.0229479 2.5921 0.323226 0.0688436 2.5921 0.671859 0.0114815 1.55526 178.68 -179.988 -179.482 176.191 -175.337 -179.387 178.817 -171.172 179.411 1.3383 -19.3606 2.87933 109.596 -160.751 -147.92 118.234 -45.9985 124.587 -0 -11.2801 -6.79551 1.42111 7.02848 -2.89499 172.344 136.26 107.496 169.041 143.734 -171.769 -0 -9.7515 -18.2671 11.4063 -14.9828 20.8728 164.606 163.671 176.29 9.78079 -1.56101 -2.29141 176.205 180 -180 24.4375 -11.2576 17.4491 156.844 -163.439 -179.744 177.854 179.832 174.399 0.0639682 0 0
 -157.136 89.3607 205.174 0.918681 3.4171 -6.44188 0.000185025 -0.00657211 1.61263 0.119255 -0.013135 2.68771 0.304549 -0.0394049 2.68771 0.63146 -0.00657211 1.61263 178.751 -179.988 -179.463 176.411 -175.156 -179.599 178.882 -171.064 179.347 1.27776 -19.1759 2.74771 109.528 -160.939 -148.102 118.47 -45.9145 124.869 -0 -11.9137 -6.77301 1.47241 6.4352 -2.98793 172.346 136.297 107.465 168.953 143.495 -171.695 -0 -9.78945 -18.4332 11.2265 -15.0371 20.7856 164.836 163.724 176.446 9.75241 -1.46891 -1.57362 176.186 180 -180 24.3491 -11.1139 17.5249 156.754 -163.367 -179.745 177.97 179.908 174.261 0.0620236 0 0
